<svg width="168" height="49" viewBox="0 0 168 49" fill="none" xmlns="http://www.w3.org/2000/svg">
<g filter="url(#filter0_d_2003_17465)">
<path d="M4.16684 3.74561C4.29897 2.19298 5.59779 1 7.15604 1H163.184C164.942 1 166.323 2.5035 166.174 4.25438L163.018 41.3369C162.886 42.8895 161.587 44.0825 160.029 44.0825H4.00027C2.24306 44.0825 0.86208 42.579 1.01108 40.8281L4.16684 3.74561Z" fill="#2373FF"/>
<path d="M163.184 0.5C165.234 0.5 166.845 2.25418 166.672 4.29688L163.516 41.3789C163.362 43.1902 161.847 44.5818 160.029 44.582H4.00073C1.95079 44.582 0.338881 42.8286 0.512451 40.7861L3.6687 3.70312C3.8229 1.89178 5.3381 0.500015 7.15601 0.5H163.184Z" stroke="black"/>
</g>
<g filter="url(#filter1_d_2003_17465)">
<mask id="path-3-outside-1_2003_17465" maskUnits="userSpaceOnUse" x="41.7341" y="15" width="84" height="13" fill="black">
<rect fill="white" x="41.7341" y="15" width="84" height="13"/>
<path d="M42.4334 25.56C42.4334 25.2507 42.5241 24.8933 42.7054 24.488C42.8868 24.072 43.0841 23.7893 43.2974 23.64C43.7028 23.9387 44.1134 24.088 44.5294 24.088L45.0254 24.008C45.6014 23.8373 45.9001 23.3787 45.9214 22.632V18.552H44.6414C44.4601 18.552 44.3321 18.3227 44.2574 17.864C44.2254 17.64 44.2094 17.4107 44.2094 17.176C44.2094 16.9413 44.2254 16.712 44.2574 16.488C44.3321 16.0293 44.4601 15.8 44.6414 15.8H48.4494C48.6628 15.8 48.8228 15.864 48.9294 15.992C49.0361 16.1093 49.0894 16.2533 49.0894 16.424V23.976C49.0894 25.0213 48.7374 25.816 48.0334 26.36C47.3401 26.904 46.5028 27.176 45.5214 27.176C44.5508 27.176 43.7934 27.032 43.2494 26.744C42.7054 26.456 42.4334 26.0613 42.4334 25.56ZM55.3921 27.16C53.8987 27.16 52.6774 26.6693 51.7281 25.688C50.7894 24.7067 50.3201 23.2773 50.3201 21.4C50.3201 19.512 50.7947 18.0827 51.7441 17.112C52.7041 16.1413 53.9361 15.656 55.4401 15.656C56.9547 15.656 58.1761 16.136 59.1041 17.096C60.0321 18.0453 60.4961 19.4907 60.4961 21.432C60.4961 23.3627 60.0214 24.8027 59.0721 25.752C58.1227 26.6907 56.8961 27.16 55.3921 27.16ZM55.4081 18.728C54.8961 18.728 54.4641 18.9627 54.1121 19.432C53.7707 19.9013 53.6001 20.5627 53.6001 21.416C53.6001 22.2587 53.7654 22.9093 54.0961 23.368C54.4267 23.816 54.8587 24.04 55.3921 24.04C55.9361 24.04 56.3734 23.8107 56.7041 23.352C57.0454 22.8933 57.2161 22.2373 57.2161 21.384C57.2161 20.5307 57.0401 19.8747 56.6881 19.416C56.3467 18.9573 55.9201 18.728 55.4081 18.728ZM62.9967 24.248V18.552H61.8607C61.6794 18.552 61.5514 18.3227 61.4767 17.864C61.4447 17.64 61.4287 17.4107 61.4287 17.176C61.4287 16.9413 61.4447 16.712 61.4767 16.488C61.5514 16.0293 61.6794 15.8 61.8607 15.8H67.2367C67.418 15.8 67.5407 16.0293 67.6047 16.488C67.6474 16.712 67.6687 16.9413 67.6687 17.176C67.6687 17.4107 67.6474 17.64 67.6047 17.864C67.5407 18.3227 67.418 18.552 67.2367 18.552H66.1647V24.248H67.2847C67.466 24.248 67.594 24.4773 67.6687 24.936C67.7114 25.16 67.7327 25.3893 67.7327 25.624C67.7327 25.8587 67.7114 26.088 67.6687 26.312C67.594 26.7707 67.466 27 67.2847 27H61.8927C61.7114 27 61.5887 26.7707 61.5247 26.312C61.482 26.088 61.4607 25.8587 61.4607 25.624C61.4607 25.3893 61.482 25.16 61.5247 24.936C61.5887 24.4773 61.7114 24.248 61.8927 24.248H62.9967ZM77.7281 26.648C77.7281 26.872 77.2267 26.984 76.2241 26.984C75.2214 26.984 74.6774 26.904 74.5921 26.744L71.9201 21.752V26.728C71.9201 26.92 71.4241 27.016 70.4321 27.016C69.4507 27.016 68.9601 26.92 68.9601 26.728V16.024C68.9601 15.864 69.3814 15.784 70.2241 15.784C70.5547 15.784 70.9387 15.816 71.3761 15.88C71.8241 15.9333 72.0961 16.04 72.1921 16.2L74.7521 21.128V16.104C74.7521 15.9013 75.2481 15.8 76.2401 15.8C77.2321 15.8 77.7281 15.9013 77.7281 16.104V26.648ZM88.5907 23.656L88.6227 21.48C88.6227 21.3307 88.7774 21.2347 89.0867 21.192C89.396 21.1387 89.652 21.112 89.8547 21.112L90.4787 21.16C90.884 21.224 91.0867 21.336 91.0867 21.496L91.0227 26.504C90.8094 26.6533 90.3774 26.8027 89.7267 26.952C89.0867 27.0907 88.3507 27.16 87.5187 27.16C85.972 27.16 84.724 26.6587 83.7747 25.656C82.8254 24.6533 82.3507 23.1813 82.3507 21.24C82.3507 19.5867 82.8147 18.2427 83.7427 17.208C84.6707 16.1733 85.956 15.656 87.5987 15.656C88.3454 15.656 89.0174 15.7307 89.6147 15.88C90.2227 16.0187 90.6387 16.2107 90.8627 16.456C90.8734 16.5413 90.8787 16.7013 90.8787 16.936C90.8787 17.1707 90.7987 17.5067 90.6387 17.944C90.4787 18.3707 90.2974 18.6907 90.0947 18.904C89.892 19.1173 89.7427 19.224 89.6467 19.224C89.5614 19.224 89.4654 19.1867 89.3587 19.112C89.2627 19.0267 89.0654 18.9413 88.7667 18.856C88.468 18.76 88.18 18.712 87.9027 18.712C87.2414 18.712 86.7027 18.9253 86.2867 19.352C85.8814 19.7787 85.6787 20.44 85.6787 21.336C85.6787 22.232 85.8867 22.9147 86.3027 23.384C86.7294 23.8427 87.2147 24.072 87.7587 24.072C88.3134 24.072 88.5907 23.9333 88.5907 23.656ZM100.288 27.032C99.3602 27.032 98.8589 26.8827 98.7842 26.584L98.2562 24.52H95.7122L95.2482 26.504C95.1842 26.8347 94.6722 27 93.7122 27C93.2002 27 92.8215 26.9733 92.5762 26.92C92.3309 26.856 92.2082 26.808 92.2082 26.776L95.0402 15.944C95.0402 15.8587 95.7709 15.816 97.2322 15.816C98.6935 15.816 99.4242 15.8587 99.4242 15.944L102.192 26.792C102.192 26.8667 101.947 26.9253 101.456 26.968C100.966 27.0107 100.576 27.032 100.288 27.032ZM96.1122 22.488H97.7922L97.0722 19.176H96.9762L96.1122 22.488ZM114.613 27.016C113.663 27.016 113.189 26.9093 113.189 26.696L112.853 20.28L110.901 26.776C110.858 26.904 110.495 26.968 109.813 26.968C109.13 26.968 108.778 26.9093 108.757 26.792L106.741 20.216L106.517 26.6C106.506 26.76 106.303 26.872 105.909 26.936C105.514 26.9893 105.183 27.016 104.917 27.016C104.661 27.016 104.41 27 104.165 26.968C103.653 26.8933 103.402 26.76 103.413 26.568L103.781 16.168C103.781 15.912 104.431 15.784 105.733 15.784C106.117 15.784 106.586 15.816 107.141 15.88C107.695 15.9333 108.005 16.0453 108.069 16.216L109.861 21.256L111.429 16.2C111.525 15.9227 112.261 15.784 113.637 15.784C114.031 15.784 114.501 15.816 115.045 15.88C115.599 15.9333 115.877 16.0347 115.877 16.184L116.341 26.68C116.341 26.7973 116.133 26.8827 115.717 26.936C115.301 26.9893 114.933 27.016 114.613 27.016ZM123.288 20.248C123.491 20.248 123.592 20.6213 123.592 21.368C123.592 21.592 123.566 21.8587 123.512 22.168C123.47 22.4667 123.384 22.616 123.256 22.616H121.224V24.216H124.168C124.35 24.216 124.472 24.4507 124.536 24.92C124.568 25.1227 124.584 25.3413 124.584 25.576C124.584 25.8 124.552 26.0933 124.488 26.456C124.424 26.8187 124.318 27 124.168 27H118.696C118.291 27 118.088 26.8347 118.088 26.504V16.216C118.088 15.9387 118.211 15.8 118.456 15.8H124.184C124.408 15.8 124.52 16.2747 124.52 17.224C124.52 18.1627 124.408 18.632 124.184 18.632H121.224V20.248H123.288Z"/>
</mask>
<path d="M42.4334 25.56C42.4334 25.2507 42.5241 24.8933 42.7054 24.488C42.8868 24.072 43.0841 23.7893 43.2974 23.64C43.7028 23.9387 44.1134 24.088 44.5294 24.088L45.0254 24.008C45.6014 23.8373 45.9001 23.3787 45.9214 22.632V18.552H44.6414C44.4601 18.552 44.3321 18.3227 44.2574 17.864C44.2254 17.64 44.2094 17.4107 44.2094 17.176C44.2094 16.9413 44.2254 16.712 44.2574 16.488C44.3321 16.0293 44.4601 15.8 44.6414 15.8H48.4494C48.6628 15.8 48.8228 15.864 48.9294 15.992C49.0361 16.1093 49.0894 16.2533 49.0894 16.424V23.976C49.0894 25.0213 48.7374 25.816 48.0334 26.36C47.3401 26.904 46.5028 27.176 45.5214 27.176C44.5508 27.176 43.7934 27.032 43.2494 26.744C42.7054 26.456 42.4334 26.0613 42.4334 25.56ZM55.3921 27.16C53.8987 27.16 52.6774 26.6693 51.7281 25.688C50.7894 24.7067 50.3201 23.2773 50.3201 21.4C50.3201 19.512 50.7947 18.0827 51.7441 17.112C52.7041 16.1413 53.9361 15.656 55.4401 15.656C56.9547 15.656 58.1761 16.136 59.1041 17.096C60.0321 18.0453 60.4961 19.4907 60.4961 21.432C60.4961 23.3627 60.0214 24.8027 59.0721 25.752C58.1227 26.6907 56.8961 27.16 55.3921 27.16ZM55.4081 18.728C54.8961 18.728 54.4641 18.9627 54.1121 19.432C53.7707 19.9013 53.6001 20.5627 53.6001 21.416C53.6001 22.2587 53.7654 22.9093 54.0961 23.368C54.4267 23.816 54.8587 24.04 55.3921 24.04C55.9361 24.04 56.3734 23.8107 56.7041 23.352C57.0454 22.8933 57.2161 22.2373 57.2161 21.384C57.2161 20.5307 57.0401 19.8747 56.6881 19.416C56.3467 18.9573 55.9201 18.728 55.4081 18.728ZM62.9967 24.248V18.552H61.8607C61.6794 18.552 61.5514 18.3227 61.4767 17.864C61.4447 17.64 61.4287 17.4107 61.4287 17.176C61.4287 16.9413 61.4447 16.712 61.4767 16.488C61.5514 16.0293 61.6794 15.8 61.8607 15.8H67.2367C67.418 15.8 67.5407 16.0293 67.6047 16.488C67.6474 16.712 67.6687 16.9413 67.6687 17.176C67.6687 17.4107 67.6474 17.64 67.6047 17.864C67.5407 18.3227 67.418 18.552 67.2367 18.552H66.1647V24.248H67.2847C67.466 24.248 67.594 24.4773 67.6687 24.936C67.7114 25.16 67.7327 25.3893 67.7327 25.624C67.7327 25.8587 67.7114 26.088 67.6687 26.312C67.594 26.7707 67.466 27 67.2847 27H61.8927C61.7114 27 61.5887 26.7707 61.5247 26.312C61.482 26.088 61.4607 25.8587 61.4607 25.624C61.4607 25.3893 61.482 25.16 61.5247 24.936C61.5887 24.4773 61.7114 24.248 61.8927 24.248H62.9967ZM77.7281 26.648C77.7281 26.872 77.2267 26.984 76.2241 26.984C75.2214 26.984 74.6774 26.904 74.5921 26.744L71.9201 21.752V26.728C71.9201 26.92 71.4241 27.016 70.4321 27.016C69.4507 27.016 68.9601 26.92 68.9601 26.728V16.024C68.9601 15.864 69.3814 15.784 70.2241 15.784C70.5547 15.784 70.9387 15.816 71.3761 15.88C71.8241 15.9333 72.0961 16.04 72.1921 16.2L74.7521 21.128V16.104C74.7521 15.9013 75.2481 15.8 76.2401 15.8C77.2321 15.8 77.7281 15.9013 77.7281 16.104V26.648ZM88.5907 23.656L88.6227 21.48C88.6227 21.3307 88.7774 21.2347 89.0867 21.192C89.396 21.1387 89.652 21.112 89.8547 21.112L90.4787 21.16C90.884 21.224 91.0867 21.336 91.0867 21.496L91.0227 26.504C90.8094 26.6533 90.3774 26.8027 89.7267 26.952C89.0867 27.0907 88.3507 27.16 87.5187 27.16C85.972 27.16 84.724 26.6587 83.7747 25.656C82.8254 24.6533 82.3507 23.1813 82.3507 21.24C82.3507 19.5867 82.8147 18.2427 83.7427 17.208C84.6707 16.1733 85.956 15.656 87.5987 15.656C88.3454 15.656 89.0174 15.7307 89.6147 15.88C90.2227 16.0187 90.6387 16.2107 90.8627 16.456C90.8734 16.5413 90.8787 16.7013 90.8787 16.936C90.8787 17.1707 90.7987 17.5067 90.6387 17.944C90.4787 18.3707 90.2974 18.6907 90.0947 18.904C89.892 19.1173 89.7427 19.224 89.6467 19.224C89.5614 19.224 89.4654 19.1867 89.3587 19.112C89.2627 19.0267 89.0654 18.9413 88.7667 18.856C88.468 18.76 88.18 18.712 87.9027 18.712C87.2414 18.712 86.7027 18.9253 86.2867 19.352C85.8814 19.7787 85.6787 20.44 85.6787 21.336C85.6787 22.232 85.8867 22.9147 86.3027 23.384C86.7294 23.8427 87.2147 24.072 87.7587 24.072C88.3134 24.072 88.5907 23.9333 88.5907 23.656ZM100.288 27.032C99.3602 27.032 98.8589 26.8827 98.7842 26.584L98.2562 24.52H95.7122L95.2482 26.504C95.1842 26.8347 94.6722 27 93.7122 27C93.2002 27 92.8215 26.9733 92.5762 26.92C92.3309 26.856 92.2082 26.808 92.2082 26.776L95.0402 15.944C95.0402 15.8587 95.7709 15.816 97.2322 15.816C98.6935 15.816 99.4242 15.8587 99.4242 15.944L102.192 26.792C102.192 26.8667 101.947 26.9253 101.456 26.968C100.966 27.0107 100.576 27.032 100.288 27.032ZM96.1122 22.488H97.7922L97.0722 19.176H96.9762L96.1122 22.488ZM114.613 27.016C113.663 27.016 113.189 26.9093 113.189 26.696L112.853 20.28L110.901 26.776C110.858 26.904 110.495 26.968 109.813 26.968C109.13 26.968 108.778 26.9093 108.757 26.792L106.741 20.216L106.517 26.6C106.506 26.76 106.303 26.872 105.909 26.936C105.514 26.9893 105.183 27.016 104.917 27.016C104.661 27.016 104.41 27 104.165 26.968C103.653 26.8933 103.402 26.76 103.413 26.568L103.781 16.168C103.781 15.912 104.431 15.784 105.733 15.784C106.117 15.784 106.586 15.816 107.141 15.88C107.695 15.9333 108.005 16.0453 108.069 16.216L109.861 21.256L111.429 16.2C111.525 15.9227 112.261 15.784 113.637 15.784C114.031 15.784 114.501 15.816 115.045 15.88C115.599 15.9333 115.877 16.0347 115.877 16.184L116.341 26.68C116.341 26.7973 116.133 26.8827 115.717 26.936C115.301 26.9893 114.933 27.016 114.613 27.016ZM123.288 20.248C123.491 20.248 123.592 20.6213 123.592 21.368C123.592 21.592 123.566 21.8587 123.512 22.168C123.47 22.4667 123.384 22.616 123.256 22.616H121.224V24.216H124.168C124.35 24.216 124.472 24.4507 124.536 24.92C124.568 25.1227 124.584 25.3413 124.584 25.576C124.584 25.8 124.552 26.0933 124.488 26.456C124.424 26.8187 124.318 27 124.168 27H118.696C118.291 27 118.088 26.8347 118.088 26.504V16.216C118.088 15.9387 118.211 15.8 118.456 15.8H124.184C124.408 15.8 124.52 16.2747 124.52 17.224C124.52 18.1627 124.408 18.632 124.184 18.632H121.224V20.248H123.288Z" fill="white"/>
<path d="M42.7054 24.488L43.2532 24.733L43.2555 24.7278L42.7054 24.488ZM43.2974 23.64L43.6534 23.157L43.3064 22.9013L42.9534 23.1485L43.2974 23.64ZM44.5294 24.088V24.688H44.5775L44.625 24.6803L44.5294 24.088ZM45.0254 24.008L45.121 24.6003L45.159 24.5942L45.1959 24.5833L45.0254 24.008ZM45.9214 22.632L46.5212 22.6491L46.5214 22.6406V22.632H45.9214ZM45.9214 18.552H46.5214V17.952H45.9214V18.552ZM44.2574 17.864L43.6634 17.9489L43.6652 17.9604L44.2574 17.864ZM44.2574 16.488L43.6651 16.3916L43.6635 16.4031L44.2574 16.488ZM48.9294 15.992L48.4685 16.3761L48.4768 16.386L48.4855 16.3956L48.9294 15.992ZM48.0334 26.36L47.6666 25.8852L47.6631 25.888L48.0334 26.36ZM43.2494 26.744L42.9687 27.2743L43.2494 26.744ZM42.4334 25.56H43.0334C43.0334 25.3635 43.0924 25.0923 43.2531 24.733L42.7054 24.488L42.1578 24.243C41.9558 24.6944 41.8334 25.1378 41.8334 25.56H42.4334ZM42.7054 24.488L43.2555 24.7278C43.4213 24.3473 43.5635 24.1862 43.6415 24.1315L43.2974 23.64L42.9534 23.1485C42.6047 23.3925 42.3522 23.7967 42.1554 24.2482L42.7054 24.488ZM43.2974 23.64L42.9415 24.123C43.4278 24.4813 43.9603 24.688 44.5294 24.688V24.088V23.488C44.2666 23.488 43.9778 23.396 43.6534 23.157L43.2974 23.64ZM44.5294 24.088L44.625 24.6803L45.121 24.6003L45.0254 24.008L44.9299 23.4157L44.4339 23.4957L44.5294 24.088ZM45.0254 24.008L45.1959 24.5833C45.6063 24.4617 45.9493 24.2242 46.1842 23.8634C46.412 23.5137 46.5085 23.094 46.5212 22.6491L45.9214 22.632L45.3217 22.6149C45.3131 22.9166 45.2496 23.0997 45.1786 23.2086C45.1149 23.3065 45.0206 23.3837 44.855 23.4327L45.0254 24.008ZM45.9214 22.632H46.5214V18.552H45.9214H45.3214V22.632H45.9214ZM45.9214 18.552V17.952H44.6414V18.552V19.152H45.9214V18.552ZM44.6414 18.552V17.952C44.733 17.952 44.8149 17.9841 44.8728 18.027C44.9225 18.0639 44.9381 18.0961 44.9334 18.0876C44.9293 18.0804 44.916 18.0531 44.899 17.9955C44.8824 17.9393 44.8654 17.8644 44.8496 17.7676L44.2574 17.864L43.6652 17.9604C43.7065 18.2141 43.7709 18.4671 43.8855 18.6724C44.0028 18.8825 44.2432 19.152 44.6414 19.152V18.552ZM44.2574 17.864L44.8514 17.7791C44.8236 17.5843 44.8094 17.3833 44.8094 17.176H44.2094H43.6094C43.6094 17.438 43.6273 17.6957 43.6635 17.9489L44.2574 17.864ZM44.2094 17.176H44.8094C44.8094 16.9687 44.8236 16.7677 44.8514 16.5729L44.2574 16.488L43.6635 16.4031C43.6273 16.6563 43.6094 16.914 43.6094 17.176H44.2094ZM44.2574 16.488L44.8496 16.5844C44.8654 16.4876 44.8824 16.4127 44.899 16.3565C44.916 16.2989 44.9293 16.2716 44.9334 16.2644C44.9381 16.2559 44.9225 16.2881 44.8728 16.325C44.8149 16.3679 44.733 16.4 44.6414 16.4V15.8V15.2C44.2432 15.2 44.0028 15.4695 43.8855 15.6796C43.7709 15.8849 43.7065 16.1379 43.6652 16.3916L44.2574 16.488ZM44.6414 15.8V16.4H48.4494V15.8V15.2H44.6414V15.8ZM48.4494 15.8V16.4C48.4973 16.4 48.5121 16.4073 48.5066 16.4051C48.5035 16.4039 48.497 16.4008 48.4889 16.3949C48.4807 16.389 48.4737 16.3823 48.4685 16.3761L48.9294 15.992L49.3904 15.6079C49.1392 15.3065 48.7869 15.2 48.4494 15.2V15.8ZM48.9294 15.992L48.4855 16.3956C48.4877 16.398 48.4881 16.3989 48.4877 16.3983C48.4873 16.3977 48.487 16.3968 48.4868 16.3964C48.4862 16.3947 48.4894 16.4019 48.4894 16.424H49.0894H49.6894C49.6894 16.1165 49.5885 15.825 49.3734 15.5884L48.9294 15.992ZM49.0894 16.424H48.4894V23.976H49.0894H49.6894V16.424H49.0894ZM49.0894 23.976H48.4894C48.4894 24.8721 48.1968 25.4755 47.6666 25.8852L48.0334 26.36L48.4003 26.8348C49.2781 26.1565 49.6894 25.1706 49.6894 23.976H49.0894ZM48.0334 26.36L47.6631 25.888C47.0874 26.3396 46.3846 26.576 45.5214 26.576V27.176V27.776C46.6209 27.776 47.5928 27.4684 48.4038 26.832L48.0334 26.36ZM45.5214 27.176V26.576C44.5978 26.576 43.9518 26.4369 43.5302 26.2137L43.2494 26.744L42.9687 27.2743C43.6351 27.6271 44.5038 27.776 45.5214 27.776V27.176ZM43.2494 26.744L43.5302 26.2137C43.1293 26.0015 43.0334 25.7846 43.0334 25.56H42.4334H41.8334C41.8334 26.338 42.2816 26.9105 42.9687 27.2743L43.2494 26.744ZM51.7281 25.688L51.2945 26.1027L51.2968 26.1052L51.7281 25.688ZM51.7441 17.112L51.3175 16.6901L51.3151 16.6925L51.7441 17.112ZM59.1041 17.096L58.6727 17.513L58.675 17.5154L59.1041 17.096ZM59.0721 25.752L59.4939 26.1787L59.4963 26.1763L59.0721 25.752ZM54.1121 19.432L53.632 19.072L53.6268 19.0791L54.1121 19.432ZM54.0961 23.368L53.6093 23.7189L53.6133 23.7243L54.0961 23.368ZM56.7041 23.352L56.2227 22.9938L56.2174 23.0011L56.7041 23.352ZM56.6881 19.416L56.2067 19.7742L56.2121 19.7813L56.6881 19.416ZM55.3921 27.16V26.56C54.0445 26.56 52.9844 26.1237 52.1593 25.2708L51.7281 25.688L51.2968 26.1052C52.3704 27.2149 53.753 27.76 55.3921 27.76V27.16ZM51.7281 25.688L52.1617 25.2733C51.365 24.4404 50.9201 23.1827 50.9201 21.4H50.3201H49.7201C49.7201 23.372 50.2138 24.9729 51.2945 26.1027L51.7281 25.688ZM50.3201 21.4H50.9201C50.9201 19.6067 51.3702 18.3524 52.173 17.5315L51.7441 17.112L51.3151 16.6925C50.2193 17.813 49.7201 19.4173 49.7201 21.4H50.3201ZM51.7441 17.112L52.1707 17.5339C53.006 16.6893 54.0784 16.256 55.4401 16.256V15.656V15.056C53.7937 15.056 52.4022 15.5933 51.3175 16.6901L51.7441 17.112ZM55.4401 15.656V16.256C56.816 16.256 57.8733 16.6861 58.6727 17.513L59.1041 17.096L59.5355 16.679C58.4788 15.5859 57.0935 15.056 55.4401 15.056V15.656ZM59.1041 17.096L58.675 17.5154C59.4517 18.3099 59.8961 19.5753 59.8961 21.432H60.4961H61.0961C61.0961 19.406 60.6125 17.7807 59.5331 16.6766L59.1041 17.096ZM60.4961 21.432H59.8961C59.8961 23.2736 59.4433 24.5323 58.6478 25.3277L59.0721 25.752L59.4963 26.1763C60.5996 25.073 61.0961 23.4518 61.0961 21.432H60.4961ZM59.0721 25.752L58.6502 25.3253C57.8278 26.1385 56.7599 26.56 55.3921 26.56V27.16V27.76C57.0323 27.76 58.4177 27.2428 59.4939 26.1787L59.0721 25.752ZM55.4081 18.728V18.128C54.6779 18.128 54.0785 18.4767 53.6321 19.072L54.1121 19.432L54.5921 19.792C54.8496 19.4486 55.1143 19.328 55.4081 19.328V18.728ZM54.1121 19.432L53.6268 19.0791C53.1832 19.689 53.0001 20.4928 53.0001 21.416H53.6001H54.2001C54.2001 20.6325 54.3582 20.1136 54.5973 19.7849L54.1121 19.432ZM53.6001 21.416H53.0001C53.0001 22.326 53.1769 23.119 53.6094 23.7189L54.0961 23.368L54.5828 23.0171C54.3539 22.6996 54.2001 22.1913 54.2001 21.416H53.6001ZM54.0961 23.368L53.6133 23.7243C54.0513 24.3176 54.6586 24.64 55.3921 24.64V24.04V23.44C55.0588 23.44 54.8022 23.3144 54.5788 23.0117L54.0961 23.368ZM55.3921 24.04V24.64C56.1377 24.64 56.7526 24.3107 57.1908 23.7029L56.7041 23.352L56.2174 23.0011C55.9942 23.3106 55.7344 23.44 55.3921 23.44V24.04ZM56.7041 23.352L57.1854 23.7102C57.6334 23.1082 57.8161 22.3059 57.8161 21.384H57.2161H56.6161C56.6161 22.1688 56.4574 22.6785 56.2227 22.9938L56.7041 23.352ZM57.2161 21.384H57.8161C57.8161 20.4589 57.6268 19.6536 57.1641 19.0507L56.6881 19.416L56.2121 19.7813C56.4534 20.0957 56.6161 20.6025 56.6161 21.384H57.2161ZM56.6881 19.416L57.1694 19.0578C56.7301 18.4674 56.1338 18.128 55.4081 18.128V18.728V19.328C55.7063 19.328 55.9634 19.4472 56.2067 19.7742L56.6881 19.416ZM62.9967 24.248V24.848H63.5967V24.248H62.9967ZM62.9967 18.552H63.5967V17.952H62.9967V18.552ZM61.4767 17.864L60.8826 17.9489L60.8845 17.9604L61.4767 17.864ZM61.4767 16.488L60.8844 16.3916L60.8827 16.4031L61.4767 16.488ZM67.6047 16.488L67.0105 16.5709L67.0125 16.5857L67.0153 16.6003L67.6047 16.488ZM67.6047 17.864L67.0153 17.7517L67.0125 17.7663L67.0105 17.7811L67.6047 17.864ZM66.1647 18.552V17.952H65.5647V18.552H66.1647ZM66.1647 24.248H65.5647V24.848H66.1647V24.248ZM67.6687 24.936L67.0765 25.0324L67.0778 25.0404L67.0793 25.0483L67.6687 24.936ZM67.6687 26.312L67.0793 26.1997L67.0778 26.2076L67.0765 26.2156L67.6687 26.312ZM61.5247 26.312L62.1189 26.2291L62.1169 26.2143L62.1141 26.1997L61.5247 26.312ZM61.5247 24.936L62.1141 25.0483L62.1169 25.0337L62.1189 25.0189L61.5247 24.936ZM62.9967 24.248H63.5967V18.552H62.9967H62.3967V24.248H62.9967ZM62.9967 18.552V17.952H61.8607V18.552V19.152H62.9967V18.552ZM61.8607 18.552V17.952C61.9523 17.952 62.0341 17.9841 62.092 18.027C62.1418 18.0639 62.1574 18.0961 62.1526 18.0876C62.1486 18.0804 62.1352 18.0531 62.1182 17.9955C62.1017 17.9393 62.0847 17.8644 62.0689 17.7676L61.4767 17.864L60.8845 17.9604C60.9258 18.2141 60.9902 18.4671 61.1048 18.6724C61.222 18.8825 61.4624 19.152 61.8607 19.152V18.552ZM61.4767 17.864L62.0707 17.7791C62.0428 17.5843 62.0287 17.3833 62.0287 17.176H61.4287H60.8287C60.8287 17.438 60.8466 17.6957 60.8827 17.9489L61.4767 17.864ZM61.4287 17.176H62.0287C62.0287 16.9687 62.0428 16.7677 62.0707 16.5729L61.4767 16.488L60.8827 16.4031C60.8466 16.6563 60.8287 16.914 60.8287 17.176H61.4287ZM61.4767 16.488L62.0689 16.5844C62.0847 16.4876 62.1017 16.4127 62.1182 16.3565C62.1352 16.2989 62.1486 16.2716 62.1526 16.2644C62.1574 16.2559 62.1418 16.2881 62.092 16.325C62.0341 16.3679 61.9523 16.4 61.8607 16.4V15.8V15.2C61.4624 15.2 61.222 15.4695 61.1048 15.6796C60.9902 15.8849 60.9258 16.1379 60.8845 16.3916L61.4767 16.488ZM61.8607 15.8V16.4H67.2367V15.8V15.2H61.8607V15.8ZM67.2367 15.8V16.4C67.1448 16.4 67.0609 16.3677 67.0004 16.322C66.9484 16.2828 66.9318 16.2479 66.9356 16.255C66.9387 16.2608 66.9511 16.287 66.9666 16.3441C66.9817 16.3998 66.997 16.4743 67.0105 16.5709L67.6047 16.488L68.1989 16.4051C68.1636 16.1516 68.1049 15.8968 67.9938 15.689C67.879 15.4744 67.639 15.2 67.2367 15.2V15.8ZM67.6047 16.488L67.0153 16.6003C67.0507 16.7862 67.0687 16.9779 67.0687 17.176H67.6687H68.2687C68.2687 16.9048 68.244 16.6378 68.1941 16.3757L67.6047 16.488ZM67.6687 17.176H67.0687C67.0687 17.3741 67.0507 17.5658 67.0153 17.7517L67.6047 17.864L68.1941 17.9763C68.244 17.7142 68.2687 17.4472 68.2687 17.176H67.6687ZM67.6047 17.864L67.0105 17.7811C66.997 17.8777 66.9817 17.9522 66.9666 18.0079C66.9511 18.065 66.9387 18.0912 66.9356 18.097C66.9318 18.1041 66.9484 18.0692 67.0004 18.03C67.0609 17.9843 67.1448 17.952 67.2367 17.952V18.552V19.152C67.639 19.152 67.879 18.8776 67.9938 18.663C68.1049 18.4552 68.1636 18.2004 68.1989 17.9469L67.6047 17.864ZM67.2367 18.552V17.952H66.1647V18.552V19.152H67.2367V18.552ZM66.1647 18.552H65.5647V24.248H66.1647H66.7647V18.552H66.1647ZM66.1647 24.248V24.848H67.2847V24.248V23.648H66.1647V24.248ZM67.2847 24.248V24.848C67.1931 24.848 67.1113 24.8159 67.0534 24.773C67.0036 24.7361 66.988 24.7039 66.9928 24.7124C66.9968 24.7196 67.0102 24.7469 67.0271 24.8045C67.0437 24.8607 67.0607 24.9356 67.0765 25.0324L67.6687 24.936L68.2609 24.8396C68.2196 24.5859 68.1552 24.3329 68.0406 24.1276C67.9234 23.9175 67.6829 23.648 67.2847 23.648V24.248ZM67.6687 24.936L67.0793 25.0483C67.1147 25.2342 67.1327 25.4259 67.1327 25.624H67.7327H68.3327C68.3327 25.3528 68.308 25.0858 68.2581 24.8237L67.6687 24.936ZM67.7327 25.624H67.1327C67.1327 25.8221 67.1147 26.0138 67.0793 26.1997L67.6687 26.312L68.2581 26.4243C68.308 26.1622 68.3327 25.8952 68.3327 25.624H67.7327ZM67.6687 26.312L67.0765 26.2156C67.0607 26.3124 67.0437 26.3873 67.0271 26.4435C67.0102 26.5011 66.9968 26.5284 66.9928 26.5356C66.988 26.5441 67.0036 26.5119 67.0534 26.475C67.1113 26.4321 67.1931 26.4 67.2847 26.4V27V27.6C67.6829 27.6 67.9234 27.3305 68.0406 27.1204C68.1552 26.9151 68.2196 26.6621 68.2609 26.4084L67.6687 26.312ZM67.2847 27V26.4H61.8927V27V27.6H67.2847V27ZM61.8927 27V26.4C61.9846 26.4 62.0685 26.4323 62.129 26.478C62.181 26.5172 62.1976 26.5521 62.1938 26.545C62.1907 26.5392 62.1783 26.513 62.1628 26.4559C62.1477 26.4002 62.1324 26.3257 62.1189 26.2291L61.5247 26.312L60.9305 26.3949C60.9658 26.6484 61.0245 26.9032 61.1356 27.111C61.2504 27.3256 61.4904 27.6 61.8927 27.6V27ZM61.5247 26.312L62.1141 26.1997C62.0787 26.0138 62.0607 25.8221 62.0607 25.624H61.4607H60.8607C60.8607 25.8952 60.8854 26.1622 60.9353 26.4243L61.5247 26.312ZM61.4607 25.624H62.0607C62.0607 25.4259 62.0787 25.2342 62.1141 25.0483L61.5247 24.936L60.9353 24.8237C60.8854 25.0858 60.8607 25.3528 60.8607 25.624H61.4607ZM61.5247 24.936L62.1189 25.0189C62.1324 24.9223 62.1477 24.8478 62.1628 24.7921C62.1783 24.735 62.1907 24.7088 62.1938 24.703C62.1976 24.6959 62.181 24.7308 62.129 24.77C62.0685 24.8157 61.9846 24.848 61.8927 24.848V24.248V23.648C61.4904 23.648 61.2504 23.9224 61.1356 24.137C61.0245 24.3448 60.9658 24.5996 60.9305 24.8531L61.5247 24.936ZM61.8927 24.248V24.848H62.9967V24.248V23.648H61.8927V24.248ZM74.5921 26.744L75.1215 26.4616L75.1211 26.4609L74.5921 26.744ZM71.9201 21.752L72.4491 21.4689L71.3201 21.752H71.9201ZM71.3761 15.88L71.2892 16.4737L71.2971 16.4748L71.3051 16.4758L71.3761 15.88ZM72.1921 16.2L72.7245 15.9234L72.716 15.9071L72.7066 15.8913L72.1921 16.2ZM74.7521 21.128L74.2196 21.4046L75.3521 21.128H74.7521ZM77.7281 26.648H77.1281C77.1281 26.4378 77.2601 26.3233 77.3 26.2966C77.3278 26.278 77.3177 26.2929 77.2213 26.3144C77.037 26.3556 76.7146 26.384 76.2241 26.384V26.984V27.584C76.7362 27.584 77.1658 27.5564 77.4829 27.4856C77.6371 27.4511 77.8151 27.396 77.9681 27.2934C78.1334 27.1827 78.3281 26.9702 78.3281 26.648H77.7281ZM76.2241 26.984V26.384C75.7323 26.384 75.38 26.364 75.1514 26.3304C75.0351 26.3133 74.9763 26.2962 74.9559 26.2884C74.9101 26.2709 75.0365 26.3023 75.1215 26.4616L74.5921 26.744L74.0627 27.0264C74.1903 27.2657 74.4167 27.3671 74.5283 27.4096C74.6652 27.4618 74.821 27.4947 74.9768 27.5176C75.2921 27.564 75.7131 27.584 76.2241 27.584V26.984ZM74.5921 26.744L75.1211 26.4609L72.4491 21.4689L71.9201 21.752L71.3911 22.0351L74.0631 27.0271L74.5921 26.744ZM71.9201 21.752H71.3201V26.728H71.9201H72.5201V21.752H71.9201ZM71.9201 26.728H71.3201C71.3201 26.468 71.5022 26.3488 71.5258 26.3351C71.55 26.3211 71.5344 26.3355 71.4341 26.3549C71.2442 26.3917 70.9189 26.416 70.4321 26.416V27.016V27.616C70.9372 27.616 71.3559 27.5923 71.6621 27.5331C71.8098 27.5045 71.9801 27.4589 72.1283 27.3729C72.276 27.2872 72.5201 27.084 72.5201 26.728H71.9201ZM70.4321 27.016V26.416C69.9507 26.416 69.6299 26.3917 69.4433 26.3552C69.3447 26.3359 69.3305 26.3217 69.3558 26.3366C69.3817 26.3518 69.5601 26.4712 69.5601 26.728H68.9601H68.3601C68.3601 27.0808 68.5998 27.2842 68.7483 27.3714C68.8963 27.4583 69.0661 27.5041 69.2129 27.5328C69.5169 27.5923 69.9321 27.616 70.4321 27.616V27.016ZM68.9601 26.728H69.5601V16.024H68.9601H68.3601V26.728H68.9601ZM68.9601 16.024H69.5601C69.5601 16.2978 69.3659 16.4233 69.336 16.4404C69.3032 16.4591 69.3057 16.4491 69.388 16.4335C69.5415 16.4043 69.8117 16.384 70.2241 16.384V15.784V15.184C69.7938 15.184 69.4319 15.2037 69.1641 15.2545C69.0357 15.2789 68.8803 15.3189 68.7421 15.3976C68.6069 15.4747 68.3601 15.6702 68.3601 16.024H68.9601ZM70.2241 15.784V16.384C70.5179 16.384 70.8717 16.4126 71.2892 16.4737L71.3761 15.88L71.4629 15.2863C71.0058 15.2194 70.5916 15.184 70.2241 15.184V15.784ZM71.3761 15.88L71.3051 16.4758C71.5027 16.4993 71.627 16.5311 71.697 16.5586C71.7751 16.5892 71.7267 16.5906 71.6776 16.5087L72.1921 16.2L72.7066 15.8913C72.5614 15.6494 72.3291 15.5175 72.1351 15.4414C71.9331 15.3622 71.6974 15.314 71.447 15.2842L71.3761 15.88ZM72.1921 16.2L71.6596 16.4766L74.2196 21.4046L74.7521 21.128L75.2845 20.8514L72.7245 15.9234L72.1921 16.2ZM74.7521 21.128H75.3521V16.104H74.7521H74.1521V21.128H74.7521ZM74.7521 16.104H75.3521C75.3521 16.3452 75.1898 16.4634 75.1586 16.4826C75.1326 16.4985 75.1457 16.484 75.2442 16.4639C75.431 16.4257 75.7538 16.4 76.2401 16.4V15.8V15.2C75.7343 15.2 75.3131 15.225 75.004 15.2881C74.8544 15.3187 74.6815 15.3675 74.5315 15.4594C74.3763 15.5546 74.1521 15.7614 74.1521 16.104H74.7521ZM76.2401 15.8V16.4C76.7263 16.4 77.0491 16.4257 77.236 16.4639C77.3344 16.484 77.3475 16.4985 77.3215 16.4826C77.2903 16.4634 77.1281 16.3452 77.1281 16.104H77.7281H78.3281C78.3281 15.7614 78.1038 15.5546 77.9486 15.4594C77.7986 15.3675 77.6257 15.3187 77.4762 15.2881C77.167 15.225 76.7458 15.2 76.2401 15.2V15.8ZM77.7281 16.104H77.1281V26.648H77.7281H78.3281V16.104H77.7281ZM88.5907 23.656L87.9907 23.6472V23.656H88.5907ZM88.6227 21.48L89.2227 21.4888V21.48H88.6227ZM89.0867 21.192L89.1687 21.7864L89.1787 21.785L89.1886 21.7833L89.0867 21.192ZM89.8547 21.112L89.9007 20.5138L89.8777 20.512H89.8547V21.112ZM90.4787 21.16L90.5723 20.5673L90.5486 20.5636L90.5247 20.5618L90.4787 21.16ZM91.0867 21.496L91.6867 21.5037V21.496H91.0867ZM91.0227 26.504L91.3668 26.9955L91.6187 26.8192L91.6226 26.5117L91.0227 26.504ZM89.7267 26.952L89.8538 27.5384L89.8609 27.5368L89.7267 26.952ZM83.7747 25.656L84.2104 25.2435V25.2435L83.7747 25.656ZM89.6147 15.88L89.4691 16.4622L89.4813 16.465L89.6147 15.88ZM90.8627 16.456L91.4581 16.3816L91.4344 16.1923L91.3058 16.0514L90.8627 16.456ZM90.6387 17.944L91.2005 18.1547L91.2022 18.1501L90.6387 17.944ZM90.0947 18.904L89.6597 18.4907V18.4908L90.0947 18.904ZM89.3587 19.112L88.9601 19.5604L88.9861 19.5836L89.0146 19.6035L89.3587 19.112ZM88.7667 18.856L88.5831 19.4272L88.5924 19.4302L88.6019 19.4329L88.7667 18.856ZM86.2867 19.352L85.8571 18.9331L85.8517 18.9388L86.2867 19.352ZM86.3027 23.384L85.8537 23.782L85.8585 23.7874L85.8634 23.7927L86.3027 23.384ZM88.5907 23.656L89.1906 23.6648L89.2226 21.4888L88.6227 21.48L88.0228 21.4712L87.9908 23.6472L88.5907 23.656ZM88.6227 21.48H89.2227C89.2227 21.5524 89.2022 21.6299 89.1592 21.698C89.1193 21.7613 89.0745 21.7937 89.0551 21.8058C89.0366 21.8173 89.0327 21.8157 89.0555 21.8089C89.0771 21.8024 89.1135 21.794 89.1687 21.7864L89.0867 21.192L89.0047 20.5976C88.818 20.6234 88.6047 20.673 88.4223 20.7862C88.2134 20.9159 88.0227 21.1501 88.0227 21.48H88.6227ZM89.0867 21.192L89.1886 21.7833C89.4804 21.733 89.6994 21.712 89.8547 21.712V21.112V20.512C89.6047 20.512 89.3116 20.5444 88.9847 20.6007L89.0867 21.192ZM89.8547 21.112L89.8087 21.7102L90.4327 21.7582L90.4787 21.16L90.5247 20.5618L89.9007 20.5138L89.8547 21.112ZM90.4787 21.16L90.3851 21.7527C90.4685 21.7658 90.5317 21.78 90.5779 21.7933C90.6006 21.7999 90.6173 21.8058 90.6289 21.8103C90.6406 21.815 90.6452 21.8176 90.6445 21.8171C90.6438 21.8168 90.6352 21.812 90.6219 21.8012C90.6085 21.7903 90.5885 21.7716 90.5676 21.7435C90.5207 21.6805 90.4867 21.5932 90.4867 21.496H91.0867H91.6867C91.6867 21.1071 91.4223 20.8759 91.2249 20.7669C91.0325 20.6605 90.7992 20.6032 90.5723 20.5673L90.4787 21.16ZM91.0867 21.496L90.4867 21.4883L90.4227 26.4963L91.0227 26.504L91.6226 26.5117L91.6866 21.5037L91.0867 21.496ZM91.0227 26.504L90.6786 26.0125C90.573 26.0864 90.2504 26.2162 89.5925 26.3672L89.7267 26.952L89.8609 27.5368C90.5043 27.3891 91.0457 27.2203 91.3668 26.9955L91.0227 26.504ZM89.7267 26.952L89.5996 26.3656C89.0108 26.4932 88.3189 26.56 87.5187 26.56V27.16V27.76C88.3825 27.76 89.1626 27.6881 89.8537 27.5384L89.7267 26.952ZM87.5187 27.16V26.56C86.115 26.56 85.0322 26.1115 84.2104 25.2435L83.7747 25.656L83.339 26.0685C84.4158 27.2058 85.829 27.76 87.5187 27.76V27.16ZM83.7747 25.656L84.2104 25.2435C83.4029 24.3906 82.9507 23.0905 82.9507 21.24H82.3507H81.7507C81.7507 23.2722 82.2478 24.916 83.339 26.0685L83.7747 25.656ZM82.3507 21.24H82.9507C82.9507 19.7049 83.3782 18.513 84.1894 17.6086L83.7427 17.208L83.296 16.8074C82.2512 17.9723 81.7507 19.4684 81.7507 21.24H82.3507ZM83.7427 17.208L84.1894 17.6086C84.9827 16.7241 86.0925 16.256 87.5987 16.256V15.656V15.056C85.8195 15.056 84.3587 15.6226 83.296 16.8074L83.7427 17.208ZM87.5987 15.656V16.256C88.3063 16.256 88.9282 16.3269 89.4692 16.4621L89.6147 15.88L89.7602 15.2979C89.1065 15.1345 88.3844 15.056 87.5987 15.056V15.656ZM89.6147 15.88L89.4813 16.465C90.0595 16.5969 90.3236 16.7554 90.4196 16.8606L90.8627 16.456L91.3058 16.0514C90.9538 15.666 90.3859 15.4405 89.7481 15.295L89.6147 15.88ZM90.8627 16.456L90.2673 16.5304C90.2727 16.5734 90.2787 16.6977 90.2787 16.936H90.8787H91.4787C91.4787 16.7049 91.474 16.5092 91.4581 16.3816L90.8627 16.456ZM90.8787 16.936H90.2787C90.2787 17.0607 90.23 17.3147 90.0752 17.7379L90.6387 17.944L91.2022 18.1501C91.3674 17.6986 91.4787 17.2806 91.4787 16.936H90.8787ZM90.6387 17.944L90.0769 17.7333C89.9313 18.1216 89.785 18.3588 89.6597 18.4907L90.0947 18.904L90.5297 19.3172C90.8097 19.0225 91.0261 18.6197 91.2005 18.1547L90.6387 17.944ZM90.0947 18.904L89.6597 18.4908C89.6169 18.5358 89.5801 18.5719 89.5491 18.6C89.5177 18.6286 89.4955 18.6461 89.4819 18.6558C89.4672 18.6663 89.4703 18.6621 89.4895 18.6538C89.5066 18.6463 89.5628 18.624 89.6467 18.624V19.224V19.824C89.8905 19.824 90.0819 19.7019 90.1794 19.6322C90.298 19.5476 90.4158 19.4372 90.5297 19.3172L90.0947 18.904ZM89.6467 19.224V18.624C89.6921 18.624 89.7208 18.6339 89.7282 18.6368C89.7349 18.6394 89.7266 18.6371 89.7028 18.6205L89.3587 19.112L89.0146 19.6035C89.1725 19.714 89.389 19.824 89.6467 19.824V19.224ZM89.3587 19.112L89.7573 18.6636C89.5482 18.4777 89.2271 18.3635 88.9315 18.2791L88.7667 18.856L88.6019 19.4329C88.7362 19.4713 88.8336 19.5058 88.9005 19.5347C88.9745 19.5667 88.9812 19.5792 88.9601 19.5604L89.3587 19.112ZM88.7667 18.856L88.9503 18.2848C88.6 18.1722 88.2499 18.112 87.9027 18.112V18.712V19.312C88.1101 19.312 88.3361 19.3478 88.5831 19.4272L88.7667 18.856ZM87.9027 18.712V18.112C87.0991 18.112 86.399 18.3774 85.8571 18.9331L86.2867 19.352L86.7163 19.7709C87.0064 19.4733 87.3836 19.312 87.9027 19.312V18.712ZM86.2867 19.352L85.8517 18.9388C85.2966 19.5231 85.0787 20.3645 85.0787 21.336H85.6787H86.2787C86.2787 20.5155 86.4661 20.0343 86.7217 19.7652L86.2867 19.352ZM85.6787 21.336H85.0787C85.0787 22.3164 85.3058 23.1639 85.8537 23.782L86.3027 23.384L86.7517 22.986C86.4676 22.6654 86.2787 22.1476 86.2787 21.336H85.6787ZM86.3027 23.384L85.8634 23.7927C86.3847 24.3531 87.0222 24.672 87.7587 24.672V24.072V23.472C87.4072 23.472 87.074 23.3323 86.742 22.9753L86.3027 23.384ZM87.7587 24.072V24.672C88.0667 24.672 88.387 24.6367 88.651 24.5047C88.7915 24.4344 88.933 24.3283 89.0379 24.1708C89.1454 24.0096 89.1907 23.8303 89.1907 23.656H88.5907H87.9907C87.9907 23.6203 88.0013 23.5624 88.0395 23.5052C88.0751 23.4517 88.1125 23.4323 88.1144 23.4313C88.1151 23.431 88.1089 23.4341 88.0933 23.4388C88.0777 23.4435 88.0551 23.449 88.0241 23.4542C87.961 23.4647 87.874 23.472 87.7587 23.472V24.072ZM98.7842 26.584L99.3663 26.4385L99.3655 26.4353L98.7842 26.584ZM98.2562 24.52L98.8375 24.3713L98.722 23.92H98.2562V24.52ZM95.7122 24.52V23.92H95.2363L95.128 24.3834L95.7122 24.52ZM95.2482 26.504L94.664 26.3674L94.6613 26.3786L94.6591 26.39L95.2482 26.504ZM92.5762 26.92L92.4247 27.5006L92.4367 27.5037L92.4487 27.5063L92.5762 26.92ZM92.2082 26.776L91.6277 26.6242L91.6082 26.6989V26.776H92.2082ZM95.0402 15.944L95.6207 16.0958L95.6402 16.0211V15.944H95.0402ZM99.4242 15.944H98.8242V16.0193L98.8428 16.0923L99.4242 15.944ZM102.192 26.792H102.792V26.7167L102.774 26.6437L102.192 26.792ZM101.456 26.968L101.404 26.3703L101.456 26.968ZM96.1122 22.488L95.5316 22.3365L95.3356 23.088H96.1122V22.488ZM97.7922 22.488V23.088H98.5366L98.3785 22.3605L97.7922 22.488ZM97.0722 19.176L97.6585 19.0485L97.5558 18.576H97.0722V19.176ZM96.9762 19.176V18.576H96.5126L96.3956 19.0245L96.9762 19.176ZM100.288 27.032V26.432C99.8448 26.432 99.5555 26.395 99.3875 26.345C99.1945 26.2875 99.3238 26.2684 99.3663 26.4385L98.7842 26.584L98.2021 26.7295C98.3193 27.1983 98.7366 27.4032 99.0449 27.495C99.3783 27.5943 99.8036 27.632 100.288 27.632V27.032ZM98.7842 26.584L99.3655 26.4353L98.8375 24.3713L98.2562 24.52L97.6749 24.6687L98.2029 26.7327L98.7842 26.584ZM98.2562 24.52V23.92H95.7122V24.52V25.12H98.2562V24.52ZM95.7122 24.52L95.128 24.3834L94.664 26.3674L95.2482 26.504L95.8324 26.6406L96.2964 24.6566L95.7122 24.52ZM95.2482 26.504L94.6591 26.39C94.6897 26.2319 94.8124 26.2467 94.6318 26.305C94.4647 26.359 94.1705 26.4 93.7122 26.4V27V27.6C94.2139 27.6 94.6557 27.5583 95.0006 27.447C95.332 27.34 95.7427 27.1068 95.8373 26.618L95.2482 26.504ZM93.7122 27V26.4C93.2085 26.4 92.8832 26.3727 92.7037 26.3337L92.5762 26.92L92.4487 27.5063C92.7599 27.5739 93.1919 27.6 93.7122 27.6V27ZM92.5762 26.92L92.7276 26.3394C92.611 26.309 92.5465 26.2881 92.5188 26.2773C92.5013 26.2704 92.523 26.277 92.559 26.3004C92.5762 26.3117 92.6226 26.3433 92.6707 26.3997C92.7164 26.4533 92.8082 26.5828 92.8082 26.776H92.2082H91.6082C91.6082 26.9772 91.7038 27.1152 91.7572 27.1778C91.8129 27.2432 91.8709 27.2843 91.9034 27.3056C91.9701 27.349 92.0378 27.3776 92.0816 27.3947C92.1765 27.4319 92.296 27.467 92.4247 27.5006L92.5762 26.92ZM92.2082 26.776L92.7887 26.9278L95.6207 16.0958L95.0402 15.944L94.4597 15.7922L91.6277 26.6242L92.2082 26.776ZM95.0402 15.944H95.6402C95.6402 16.1748 95.5118 16.3206 95.4441 16.3798C95.3785 16.4373 95.3181 16.4626 95.3015 16.4694C95.2638 16.4848 95.2473 16.4848 95.2807 16.479C95.3369 16.4692 95.4459 16.4573 95.6232 16.447C95.9704 16.4267 96.5041 16.416 97.2322 16.416V15.816V15.216C96.4989 15.216 95.9367 15.2266 95.5532 15.249C95.3651 15.26 95.2001 15.2748 95.0737 15.297C95.0157 15.3071 94.9308 15.3245 94.8474 15.3586C94.808 15.3747 94.7305 15.4097 94.6534 15.4772C94.5743 15.5464 94.4402 15.7025 94.4402 15.944H95.0402ZM97.2322 15.816V16.416C97.9603 16.416 98.494 16.4267 98.8412 16.447C99.0184 16.4573 99.1275 16.4692 99.1837 16.479C99.217 16.4848 99.2006 16.4848 99.1629 16.4694C99.1463 16.4626 99.0859 16.4373 99.0203 16.3798C98.9526 16.3206 98.8242 16.1748 98.8242 15.944H99.4242H100.024C100.024 15.7025 99.8901 15.5464 99.811 15.4772C99.7339 15.4097 99.6564 15.3747 99.617 15.3586C99.5336 15.3245 99.4487 15.3071 99.3907 15.297C99.2643 15.2748 99.0993 15.26 98.9112 15.249C98.5277 15.2266 97.9655 15.216 97.2322 15.216V15.816ZM99.4242 15.944L98.8428 16.0923L101.611 26.9403L102.192 26.792L102.774 26.6437L100.006 15.7957L99.4242 15.944ZM102.192 26.792H101.592C101.592 26.623 101.665 26.4977 101.728 26.426C101.784 26.3608 101.84 26.3286 101.86 26.3178C101.898 26.2968 101.913 26.2979 101.869 26.3085C101.79 26.3272 101.642 26.3496 101.404 26.3703L101.456 26.968L101.508 27.5657C101.761 27.5438 101.981 27.5155 102.148 27.4755C102.226 27.4568 102.333 27.4265 102.433 27.3722C102.49 27.3412 102.792 27.1708 102.792 26.792H102.192ZM101.456 26.968L101.404 26.3703C100.921 26.4123 100.551 26.432 100.288 26.432V27.032V27.632C100.601 27.632 101.01 27.609 101.508 27.5657L101.456 26.968ZM96.1122 22.488V23.088H97.7922V22.488V21.888H96.1122V22.488ZM97.7922 22.488L98.3785 22.3605L97.6585 19.0485L97.0722 19.176L96.4859 19.3035L97.2059 22.6155L97.7922 22.488ZM97.0722 19.176V18.576H96.9762V19.176V19.776H97.0722V19.176ZM96.9762 19.176L96.3956 19.0245L95.5316 22.3365L96.1122 22.488L96.6928 22.6395L97.5568 19.3275L96.9762 19.176ZM113.189 26.696H113.789V26.6803L113.788 26.6646L113.189 26.696ZM112.853 20.28L113.452 20.2486L112.278 20.1073L112.853 20.28ZM110.901 26.776L111.47 26.9657L111.473 26.9572L111.475 26.9487L110.901 26.776ZM108.757 26.792L109.347 26.6847L109.341 26.6499L109.33 26.6161L108.757 26.792ZM106.741 20.216L107.314 20.0401L106.141 20.195L106.741 20.216ZM106.517 26.6L107.115 26.6399L107.116 26.6305L107.116 26.621L106.517 26.6ZM105.909 26.936L105.989 27.5306L105.997 27.5295L106.005 27.5283L105.909 26.936ZM104.165 26.968L104.078 27.5618L104.087 27.563L104.165 26.968ZM103.413 26.568L104.012 26.6013L104.012 26.5892L103.413 26.568ZM103.781 16.168L104.38 16.1892L104.381 16.1786V16.168H103.781ZM107.141 15.88L107.072 16.4762L107.083 16.4772L107.141 15.88ZM108.069 16.216L108.634 16.015L108.63 16.0053L108.069 16.216ZM109.861 21.256L109.295 21.457L109.899 23.1563L110.434 21.4337L109.861 21.256ZM111.429 16.2L110.862 16.0037L110.858 16.013L110.855 16.0223L111.429 16.2ZM115.045 15.88L114.974 16.476L114.987 16.4772L115.045 15.88ZM115.877 16.184H115.277V16.1973L115.277 16.2105L115.877 16.184ZM116.341 26.68H116.941V26.6667L116.94 26.6535L116.341 26.68ZM115.717 26.936L115.793 27.5311V27.5311L115.717 26.936ZM114.613 27.016V26.416C114.149 26.416 113.847 26.3889 113.676 26.3506C113.587 26.3305 113.582 26.3175 113.613 26.3385C113.657 26.368 113.789 26.4848 113.789 26.696H113.189H112.589C112.589 27.0139 112.78 27.224 112.942 27.3335C113.092 27.4345 113.265 27.4882 113.413 27.5214C113.717 27.5897 114.127 27.616 114.613 27.616V27.016ZM113.189 26.696L113.788 26.6646L113.452 20.2486L112.853 20.28L112.253 20.3114L112.589 26.7274L113.189 26.696ZM112.853 20.28L112.278 20.1073L110.326 26.6033L110.901 26.776L111.475 26.9487L113.427 20.4527L112.853 20.28ZM110.901 26.776L110.331 26.5863C110.398 26.3868 110.548 26.3196 110.552 26.3178C110.57 26.3089 110.559 26.3173 110.492 26.3291C110.363 26.3519 110.143 26.368 109.813 26.368V26.968V27.568C110.165 27.568 110.467 27.5521 110.701 27.5109C110.815 27.4907 110.945 27.4591 111.065 27.4022C111.171 27.3524 111.382 27.2292 111.47 26.9657L110.901 26.776ZM109.813 26.968V26.368C109.48 26.368 109.261 26.3532 109.135 26.3322C109.068 26.321 109.064 26.3137 109.09 26.3263C109.105 26.3333 109.151 26.3562 109.202 26.4063C109.256 26.4603 109.323 26.5529 109.347 26.6847L108.757 26.792L108.166 26.8993C108.225 27.2239 108.483 27.3664 108.579 27.4117C108.699 27.4683 108.829 27.4977 108.938 27.5158C109.164 27.5535 109.462 27.568 109.813 27.568V26.968ZM108.757 26.792L109.33 26.6161L107.314 20.0401L106.741 20.216L106.167 20.3919L108.183 26.9679L108.757 26.792ZM106.741 20.216L106.141 20.195L105.917 26.579L106.517 26.6L107.116 26.621L107.34 20.237L106.741 20.216ZM106.517 26.6L105.918 26.5601C105.924 26.4703 105.959 26.3939 106 26.3407C106.019 26.3167 106.037 26.3008 106.048 26.2916C106.054 26.287 106.059 26.2838 106.062 26.2818C106.065 26.2798 106.066 26.2789 106.066 26.2789C106.066 26.2788 106.065 26.2796 106.062 26.2809C106.059 26.2823 106.055 26.2842 106.049 26.2865C106.038 26.2911 106.021 26.2969 105.999 26.3035C105.954 26.3167 105.893 26.3307 105.813 26.3437L105.909 26.936L106.005 27.5283C106.228 27.492 106.457 27.4343 106.647 27.3291C106.841 27.2219 107.091 27.0052 107.115 26.6399L106.517 26.6ZM105.909 26.936L105.828 26.3414C105.449 26.3927 105.147 26.416 104.917 26.416V27.016V27.616C105.22 27.616 105.579 27.586 105.989 27.5306L105.909 26.936ZM104.917 27.016V26.416C104.686 26.416 104.461 26.4016 104.242 26.373L104.165 26.968L104.087 27.563C104.359 27.5984 104.636 27.616 104.917 27.616V27.016ZM104.165 26.968L104.251 26.3743C104.14 26.3581 104.053 26.3401 103.987 26.3221C103.92 26.3037 103.886 26.2883 103.874 26.2823C103.861 26.2751 103.896 26.2903 103.936 26.3448C103.985 26.4103 104.017 26.5024 104.012 26.6013L103.413 26.568L102.813 26.5347C102.789 26.9688 103.091 27.2249 103.311 27.3417C103.528 27.4573 103.8 27.5212 104.078 27.5617L104.165 26.968ZM103.413 26.568L104.012 26.5892L104.38 16.1892L103.781 16.168L103.181 16.1468L102.813 26.5468L103.413 26.568ZM103.781 16.168H104.381C104.381 16.4072 104.214 16.5128 104.208 16.5167C104.202 16.5199 104.246 16.4959 104.384 16.4687C104.651 16.4163 105.091 16.384 105.733 16.384V15.784V15.184C105.073 15.184 104.537 15.2157 104.153 15.2913C103.966 15.3281 103.766 15.3841 103.598 15.4833C103.428 15.5832 103.181 15.8008 103.181 16.168H103.781ZM105.733 15.784V16.384C106.086 16.384 106.531 16.4136 107.072 16.476L107.141 15.88L107.209 15.284C106.641 15.2184 106.147 15.184 105.733 15.184V15.784ZM107.141 15.88L107.083 16.4772C107.34 16.5019 107.498 16.5371 107.584 16.5682C107.626 16.5833 107.629 16.5898 107.612 16.5774C107.594 16.5634 107.541 16.5167 107.507 16.4267L108.069 16.216L108.63 16.0053C108.502 15.6627 108.188 15.5106 107.993 15.4398C107.769 15.3589 107.496 15.3114 107.198 15.2828L107.141 15.88ZM108.069 16.216L107.503 16.417L109.295 21.457L109.861 21.256L110.426 21.055L108.634 16.015L108.069 16.216ZM109.861 21.256L110.434 21.4337L112.002 16.3777L111.429 16.2L110.855 16.0223L109.287 21.0783L109.861 21.256ZM111.429 16.2L111.996 16.3963C111.945 16.5415 111.846 16.576 111.889 16.5547C111.922 16.5379 112.005 16.5075 112.164 16.4776C112.476 16.4187 112.96 16.384 113.637 16.384V15.784V15.184C112.937 15.184 112.365 15.2186 111.941 15.2984C111.732 15.3379 111.527 15.3941 111.352 15.4813C111.187 15.564 110.96 15.7198 110.862 16.0037L111.429 16.2ZM113.637 15.784V16.384C114.001 16.384 114.446 16.4137 114.974 16.4759L115.045 15.88L115.115 15.2841C114.556 15.2183 114.062 15.184 113.637 15.184V15.784ZM115.045 15.88L114.987 16.4772C115.25 16.5025 115.397 16.5356 115.463 16.5596C115.497 16.572 115.468 16.5677 115.422 16.5261C115.396 16.5026 115.359 16.4619 115.328 16.4007C115.296 16.3366 115.277 16.2622 115.277 16.184H115.877H116.477C116.477 15.936 116.353 15.7502 116.227 15.6359C116.112 15.5316 115.979 15.4707 115.874 15.4324C115.663 15.3551 115.394 15.3108 115.102 15.2828L115.045 15.88ZM115.877 16.184L115.277 16.2105L115.741 26.7065L116.341 26.68L116.94 26.6535L116.476 16.1575L115.877 16.184ZM116.341 26.68H115.741C115.741 26.6026 115.758 26.529 115.789 26.4648C115.818 26.4029 115.855 26.3596 115.883 26.3323C115.934 26.2828 115.973 26.2705 115.957 26.2769C115.947 26.2811 115.917 26.2915 115.859 26.3043C115.804 26.3167 115.731 26.3292 115.64 26.3409L115.717 26.936L115.793 27.5311C116.016 27.5025 116.235 27.46 116.412 27.3871C116.501 27.3509 116.618 27.2919 116.72 27.1917C116.833 27.082 116.941 26.9079 116.941 26.68H116.341ZM115.717 26.936L115.64 26.3409C115.242 26.3919 114.901 26.416 114.613 26.416V27.016V27.616C114.964 27.616 115.359 27.5868 115.793 27.5311L115.717 26.936ZM123.512 22.168L122.921 22.0661L122.919 22.0746L122.918 22.0831L123.512 22.168ZM121.224 22.616V22.016H120.624V22.616H121.224ZM121.224 24.216H120.624V24.816H121.224V24.216ZM124.536 24.92L123.942 25.0011L123.944 25.0136L124.536 24.92ZM124.488 26.456L123.897 26.3517V26.3517L124.488 26.456ZM121.224 18.632V18.032H120.624V18.632H121.224ZM121.224 20.248H120.624V20.848H121.224V20.248ZM123.288 20.248V20.848C123.124 20.848 123.008 20.7609 122.956 20.6969C122.918 20.6507 122.922 20.6294 122.937 20.6852C122.966 20.7929 122.992 21.0082 122.992 21.368H123.592H124.192C124.192 20.9811 124.167 20.6364 124.095 20.3708C124.06 20.2399 124 20.0786 123.886 19.9391C123.758 19.7817 123.554 19.648 123.288 19.648V20.248ZM123.592 21.368H122.992C122.992 21.5473 122.971 21.7781 122.921 22.0661L123.512 22.168L124.103 22.2699C124.16 21.9392 124.192 21.6367 124.192 21.368H123.592ZM123.512 22.168L122.918 22.0831C122.91 22.1382 122.902 22.1757 122.895 22.1992C122.888 22.224 122.886 22.2226 122.895 22.2063C122.904 22.1903 122.935 22.1421 123 22.0965C123.072 22.0458 123.163 22.016 123.256 22.016V22.616V23.216C123.608 23.216 123.829 22.9902 123.937 22.8017C124.036 22.6295 124.081 22.4293 124.106 22.2529L123.512 22.168ZM123.256 22.616V22.016H121.224V22.616V23.216H123.256V22.616ZM121.224 22.616H120.624V24.216H121.224H121.824V22.616H121.224ZM121.224 24.216V24.816H124.168V24.216V23.616H121.224V24.216ZM124.168 24.216V24.816C124.073 24.816 123.987 24.7816 123.927 24.735C123.875 24.6952 123.86 24.6607 123.864 24.67C123.868 24.6776 123.881 24.706 123.897 24.7658C123.913 24.824 123.928 24.9014 123.942 25.0011L124.536 24.92L125.131 24.8389C125.095 24.5809 125.037 24.3234 124.928 24.114C124.816 23.9008 124.578 23.616 124.168 23.616V24.216ZM124.536 24.92L123.944 25.0136C123.97 25.1813 123.984 25.3683 123.984 25.576H124.584H125.184C125.184 25.3144 125.166 25.0641 125.129 24.8264L124.536 24.92ZM124.584 25.576H123.984C123.984 25.75 123.959 26.0046 123.897 26.3517L124.488 26.456L125.079 26.5603C125.146 26.1821 125.184 25.85 125.184 25.576H124.584ZM124.488 26.456L123.897 26.3517C123.885 26.4238 123.871 26.477 123.86 26.5144C123.848 26.5531 123.84 26.5648 123.843 26.5598C123.845 26.5556 123.869 26.5165 123.925 26.4764C123.989 26.4311 124.075 26.4 124.168 26.4V27V27.6C124.537 27.6 124.765 27.3589 124.877 27.1682C124.984 26.9861 125.043 26.7674 125.079 26.5603L124.488 26.456ZM124.168 27V26.4H118.696V27V27.6H124.168V27ZM118.696 27V26.4C118.634 26.4 118.6 26.3934 118.588 26.39C118.576 26.387 118.593 26.3896 118.619 26.4111C118.633 26.4217 118.646 26.4351 118.657 26.4508C118.669 26.4664 118.676 26.4814 118.682 26.4941C118.692 26.5188 118.688 26.5265 118.688 26.504H118.088H117.488C117.488 26.7977 117.584 27.1151 117.861 27.3409C118.114 27.5476 118.427 27.6 118.696 27.6V27ZM118.088 26.504H118.688V16.216H118.088H117.488V26.504H118.088ZM118.088 16.216H118.688C118.688 16.1529 118.704 16.2177 118.63 16.3015C118.591 16.3446 118.546 16.3725 118.507 16.3875C118.471 16.401 118.45 16.4 118.456 16.4V15.8V15.2C118.221 15.2 117.94 15.2699 117.731 15.5065C117.534 15.7289 117.488 16.0017 117.488 16.216H118.088ZM118.456 15.8V16.4H124.184V15.8V15.2H118.456V15.8ZM124.184 15.8V16.4C123.989 16.4 123.875 16.2828 123.841 16.2357C123.819 16.2035 123.832 16.2062 123.852 16.2938C123.892 16.4614 123.92 16.7608 123.92 17.224H124.52H125.12C125.12 16.7379 125.093 16.3253 125.02 16.0182C124.985 15.8684 124.928 15.6932 124.821 15.5423C124.704 15.3765 124.491 15.2 124.184 15.2V15.8ZM124.52 17.224H123.92C123.92 17.6817 123.892 17.9765 123.853 18.1407C123.832 18.2265 123.82 18.2277 123.843 18.1947C123.878 18.1463 123.992 18.032 124.184 18.032V18.632V19.232C124.488 19.232 124.7 19.0591 124.819 18.8933C124.927 18.7429 124.984 18.5682 125.02 18.4193C125.093 18.1142 125.12 17.705 125.12 17.224H124.52ZM124.184 18.632V18.032H121.224V18.632V19.232H124.184V18.632ZM121.224 18.632H120.624V20.248H121.224H121.824V18.632H121.224ZM121.224 20.248V20.848H123.288V20.248V19.648H121.224V20.248Z" fill="black" mask="url(#path-3-outside-1_2003_17465)"/>
</g>
<mask id="mask0_2003_17465" style="mask-type:alpha" maskUnits="userSpaceOnUse" x="1" y="1" width="166" height="44">
<path d="M4.16684 3.74561C4.29897 2.19298 5.59779 1 7.15604 1H163.184C164.942 1 166.323 2.5035 166.174 4.25438L163.018 41.3369C162.886 42.8895 161.587 44.0825 160.029 44.0825H4.00027C2.24306 44.0825 0.86208 42.579 1.01108 40.8281L4.16684 3.74561Z" fill="#EFC609"/>
</mask>
<g mask="url(#mask0_2003_17465)">
<rect x="0.734131" y="-0.669922" width="169.381" height="4.60492" fill="#1499FF"/>
<rect x="-1.70288" y="40.6504" width="169.381" height="4.60492" fill="#094CF0"/>
<path d="M169.784 8.90507L160.854 0.0908203H169.784V8.90507Z" fill="#33A6FF"/>
</g>
<defs>
<filter id="filter0_d_2003_17465" x="0" y="0" width="167.185" height="48.0825" filterUnits="userSpaceOnUse" color-interpolation-filters="sRGB">
<feFlood flood-opacity="0" result="BackgroundImageFix"/>
<feColorMatrix in="SourceAlpha" type="matrix" values="0 0 0 0 0 0 0 0 0 0 0 0 0 0 0 0 0 0 127 0" result="hardAlpha"/>
<feOffset dy="3"/>
<feComposite in2="hardAlpha" operator="out"/>
<feColorMatrix type="matrix" values="0 0 0 0 0 0 0 0 0 0 0 0 0 0 0 0 0 0 0.5 0"/>
<feBlend mode="normal" in2="BackgroundImageFix" result="effect1_dropShadow_2003_17465"/>
<feBlend mode="normal" in="SourceGraphic" in2="effect1_dropShadow_2003_17465" result="shape"/>
</filter>
<filter id="filter1_d_2003_17465" x="41.8335" y="15.056" width="83.3506" height="14.52" filterUnits="userSpaceOnUse" color-interpolation-filters="sRGB">
<feFlood flood-opacity="0" result="BackgroundImageFix"/>
<feColorMatrix in="SourceAlpha" type="matrix" values="0 0 0 0 0 0 0 0 0 0 0 0 0 0 0 0 0 0 127 0" result="hardAlpha"/>
<feOffset dy="1.8"/>
<feComposite in2="hardAlpha" operator="out"/>
<feColorMatrix type="matrix" values="0 0 0 0 0 0 0 0 0 0 0 0 0 0 0 0 0 0 1 0"/>
<feBlend mode="normal" in2="BackgroundImageFix" result="effect1_dropShadow_2003_17465"/>
<feBlend mode="normal" in="SourceGraphic" in2="effect1_dropShadow_2003_17465" result="shape"/>
</filter>
</defs>
</svg>
